<svg id="Layer_1" data-name="Layer 1" xmlns="http://www.w3.org/2000/svg" viewBox="0 0 200 184.38"><defs><style>.cls-1{fill:#fff;}</style></defs><title>calender</title><path id="path1" class="cls-1" d="M119.38,144.69h26.87v26.25H119.38Zm-32.5,0h26.87v26.25H86.88Zm-33.13,0H80.63v26.25H53.75Zm-32.5,0H48.13v26.25H21.25ZM152.5,111.56h26.88v26.25H152.5Zm-33.12,0h26.87v26.25H119.38Zm-32.5,0h26.87v26.25H86.88Zm-33.13,0H80.63v26.25H53.75Zm-32.5,0H48.13v26.25H21.25ZM152.5,79.69h26.88v26.25H152.5Zm-33.12,0h26.87v26.25H119.38Zm-32.5,0h26.87v26.25H86.88Zm-33.13,0H80.63v26.25H53.75Zm-32.5,0H48.13v26.25H21.25ZM152.5,47.19h26.88V73.44H152.5Zm-33.12,0h26.87V73.44H119.38Zm-32.5,0h26.87V73.44H86.88Zm-33.13,0H80.63V73.44H53.75ZM14.38,40.31V177.19H185V40.31ZM0,7.81H200V192.19H0Z" transform="translate(0 -7.81)"/></svg>