<svg id="Capa_1" data-name="Capa 1" xmlns="http://www.w3.org/2000/svg" viewBox="0 0 512 479.98"><defs><style>.cls-1{fill:#fff;}</style></defs><title>outlook</title><path class="cls-1" d="M282.21,19.67a16.07,16.07,0,0,0-13.15-3.39l-256,48A16,16,0,0,0,0,80V432A16,16,0,0,0,13.06,447.7l256,48A15.42,15.42,0,0,0,272,496a16,16,0,0,0,16-16V32A16,16,0,0,0,282.21,19.67ZM256,460.69l-224-42V93.27l224-42Z" transform="translate(0 -16.01)"/><path class="cls-1" d="M144,176c-44.1,0-80,43.07-80,96s35.9,96,80,96,80-43.07,80-96S188.1,176,144,176Zm0,160c-26.46,0-48-28.7-48-64s21.54-64,48-64,48,28.7,48,64S170.46,336,144,336Z" transform="translate(0 -16.01)"/><path class="cls-1" d="M496,112H272a16,16,0,1,0,0,32H480V368H272a16,16,0,0,0,0,32H496a16,16,0,0,0,16-16V128A16,16,0,0,0,496,112Z" transform="translate(0 -16.01)"/><path class="cls-1" d="M508.61,118.13a16,16,0,0,0-22.43-2.78L351,220.44l-70.46-44.83a16,16,0,0,0-17.19,27l80,50.88A16.07,16.07,0,0,0,352,256a15.7,15.7,0,0,0,9.79-3.39l144-112A16,16,0,0,0,508.61,118.13Z" transform="translate(0 -16.01)"/></svg>