<svg id="Layer_1" data-name="Layer 1" xmlns="http://www.w3.org/2000/svg" viewBox="0 0 510.36 512"><defs><style>.cls-1{fill:#fff;}</style></defs><title>restaurant</title><path class="cls-1" d="M520.25-77c-15.47-20.62-36.36-32-58.81-32S418.11-97.6,402.63-77C387.92-57.36,379.82-31.46,379.82-4s8.1,53.31,22.82,72.93c8.6,11.47,18.88,20.07,30.18,25.44L415.55,354a46,46,0,1,0,91.78,0L490.06,94.33c11.3-5.38,21.58-14,30.19-25.45C535,49.26,543.06,23.36,543.06-4S535-57.36,520.25-77Zm-42.38,449.4A22.51,22.51,0,0,1,439,355.54l16.95-254.93c1.83.15,3.66.26,5.51.26s3.68-.11,5.5-.26l17,254.93A22.26,22.26,0,0,1,477.87,372.42Zm-16.43-295a42,42,0,0,1-12.26-1.84c-.33-.12-.66-.23-1-.32C422.49,66.79,403.3,34.46,403.3-4c0-44.9,26.08-81.43,58.14-81.43S519.58-48.95,519.58-4,493.5,77.38,461.44,77.38Z" transform="translate(-379.82 108.97)"/><path class="cls-1" d="M890.18,197V-95.74l-.1,0a11.7,11.7,0,0,0-1.65-7.7,11.76,11.76,0,0,0-16.17-3.81A160.35,160.35,0,0,0,795.75,30v153.8a24.94,24.94,0,0,0,24.17,24.89v159a35.14,35.14,0,1,0,70.27,0V197Zm-69.51-11.68a1.45,1.45,0,0,1-1.44-1.45V30.06h0A136.87,136.87,0,0,1,866.69-74.09V185.27Zm46,182.47a11.65,11.65,0,0,1-23.3,0v-159h23.3v159Z" transform="translate(-379.82 108.97)"/><path class="cls-1" d="M711.8-109a11.73,11.73,0,0,0-11.74,11.74V36.18H670.14V-97.22A11.75,11.75,0,0,0,658.39-109a11.74,11.74,0,0,0-11.74,11.74V36.18H616.73V-97.22A11.74,11.74,0,0,0,605-109a11.74,11.74,0,0,0-11.75,11.74v170A34.77,34.77,0,0,0,628,107.48h2.09L613.57,355.13a44.92,44.92,0,1,0,89.64,0L686.73,107.48h2.1a34.76,34.76,0,0,0,34.71-34.72v-170A11.74,11.74,0,0,0,711.8-109ZM674.05,372.75a21.43,21.43,0,0,1-37-16.06l16.57-249.21h9.62l16.58,249.21A21.21,21.21,0,0,1,674.05,372.75Zm26-300A11.22,11.22,0,0,1,688.83,84H628a11.24,11.24,0,0,1-11.23-11.23V59.66h83.32Z" transform="translate(-379.82 108.97)"/></svg>