<?xml version="1.0" encoding="utf-8"?>
<svg xmlns="http://www.w3.org/2000/svg" height="200" width="200" viewBox="0 0 200 200">
  <g>
    <path id="path1" transform="rotate(0,100,100) translate(0,7.81250046566132) scale(6.25000037252905,6.25000037252905)  " fill="#FFFFFF" d="M19.100003,21.900019L23.400006,21.900019 23.400006,26.100003 19.100003,26.100003z M13.900004,21.900019L18.200009,21.900019 18.200009,26.100003 13.900004,26.100003z M8.6000004,21.900019L12.900004,21.900019 12.900004,26.100003 8.6000004,26.100003z M3.4000025,21.900019L7.7000065,21.900019 7.7000065,26.100003 3.4000025,26.100003z M24.400008,16.599999L28.700011,16.599999 28.700011,20.800013 24.400008,20.800013z M19.100003,16.599999L23.400006,16.599999 23.400006,20.800013 19.100003,20.800013z M13.900004,16.599999L18.200009,16.599999 18.200009,20.800013 13.900004,20.800013z M8.6000004,16.599999L12.900004,16.599999 12.900004,20.800013 8.6000004,20.800013z M3.4000025,16.599999L7.7000065,16.599999 7.7000065,20.800013 3.4000025,20.800013z M24.400008,11.500005L28.700011,11.500005 28.700011,15.700004 24.400008,15.700004z M19.100003,11.500005L23.400006,11.500005 23.400006,15.700004 19.100003,15.700004z M13.900004,11.500005L18.200009,11.500005 18.200009,15.700004 13.900004,15.700004z M8.6000004,11.500005L12.900004,11.500005 12.900004,15.700004 8.6000004,15.700004z M3.4000025,11.500005L7.7000065,11.500005 7.7000065,15.700004 3.4000025,15.700004z M24.400008,6.2999905L28.700011,6.2999905 28.700011,10.500005 24.400008,10.500005z M19.100003,6.2999905L23.400006,6.2999905 23.400006,10.500005 19.100003,10.500005z M13.900004,6.2999905L18.200009,6.2999905 18.200009,10.500005 13.900004,10.500005z M8.6000004,6.2999905L12.900004,6.2999905 12.900004,10.500005 8.6000004,10.500005z M2.3000035,5.1999992L2.3000035,27.100003 29.600005,27.100003 29.600005,5.1999992z M0,0L31.999999,0 31.999999,29.499998 0,29.499998z" />
  </g>
</svg>

