<svg id="Layer_1" data-name="Layer 1" xmlns="http://www.w3.org/2000/svg" viewBox="0 0 593.17 595.28"><defs><style>.cls-1{fill:#fff;}</style></defs><title>canvas</title><path id="path2992" class="cls-1" d="M297.64,123.31c-28.66,0-57.21,3.79-85.87,10.53,5.06,42.15,42,75.86,85.87,75.86s80.81-33.71,85.87-75.86A352.61,352.61,0,0,0,297.64,123.31Zm140.12,32.13c-23.6,35.4-21.91,84.5,8.43,114.84s79,33.82,112.74,6.85C530.27,226.56,488.34,185.78,437.76,155.44ZM154.35,157c-50.57,28.66-90.82,71.12-121.16,121.69,35.4,25.29,84,23.6,114.31-8.43C177.85,239.94,181.32,190.74,154.35,157Zm143.29,75.86c-14.9,0-26.87,12.5-26.87,27.39a26.87,26.87,0,1,0,53.73,0C324.5,245.38,312.53,232.88,297.64,232.88ZM182.8,278.71a26.68,26.68,0,0,0-19,7.9,27.36,27.36,0,0,0,0,38.46,26.72,26.72,0,0,0,37.93,0,27.36,27.36,0,0,0,0-38.46,26.65,26.65,0,0,0-19-7.9Zm228.1.53a27.83,27.83,0,0,0-19.49,7.9,26.71,26.71,0,0,0,0,37.93,27.35,27.35,0,0,0,38.45,0,26.87,26.87,0,0,0-19-45.83ZM11.06,334c-6.74,27-10,56.05-10,86.4a373.37,373.37,0,0,0,10,85.87c42.15-6.75,75.86-42,75.86-85.87S53.21,339.08,11.06,334Zm573.15,0c-42.14,5.06-75.85,42.57-75.85,86.4s33.71,80.81,75.85,85.87c6.75-27,10-55.53,10-85.87A377.33,377.33,0,0,0,584.21,334Zm-448.3,59c-14.89,0-26.86,12.49-26.86,27.39a26.87,26.87,0,0,0,53.73,0C162.78,405.52,150.81,393,135.91,393Zm323.45,0c-14.89,0-26.86,12.49-26.86,27.39a26.79,26.79,0,0,0,26.86,26.86c14.9,0,27.4-12,27.4-26.86A27.69,27.69,0,0,0,459.36,393ZM182.8,506.29a27.81,27.81,0,0,0-19.49,7.9,27.19,27.19,0,1,0,38.45,0A26.61,26.61,0,0,0,182.8,506.29Zm228.63,2.1a26.87,26.87,0,1,0,19,7.9,26.68,26.68,0,0,0-19-7.9ZM92.72,543.69A84,84,0,0,0,34.77,561.6c28.66,50.57,70.59,91.34,121.16,121.69,25.29-33.72,21.92-82.81-8.43-114.84a84.39,84.39,0,0,0-54.78-24.76Zm409.84,1A86.16,86.16,0,0,0,446.19,570c-30.34,30.34-33.82,79.54-6.84,113.26,50.57-28.66,90.81-71.12,121.16-121.69a87.32,87.32,0,0,0-57.95-16.86ZM297.64,555.28a26.87,26.87,0,1,0,26.86,26.86A26.79,26.79,0,0,0,297.64,555.28Zm0,77.44c-43.83,0-80.81,33.71-85.87,75.85,27,6.75,55.52,10,85.87,10a372.82,372.82,0,0,0,85.87-10c-6.75-43.83-42-75.85-85.87-75.85Z" transform="translate(-1.05 -123.31)"/></svg>