<?xml version="1.0" encoding="UTF-8" standalone="no"?>
<svg
   xmlns:dc="http://purl.org/dc/elements/1.1/"
   xmlns:cc="http://creativecommons.org/ns#"
   xmlns:rdf="http://www.w3.org/1999/02/22-rdf-syntax-ns#"
   xmlns:svg="http://www.w3.org/2000/svg"
   xmlns="http://www.w3.org/2000/svg"
   xmlns:sodipodi="http://sodipodi.sourceforge.net/DTD/sodipodi-0.dtd"
   xmlns:inkscape="http://www.inkscape.org/namespaces/inkscape"
   version="1.1"
   id="Layer_1"
   x="0px"
   y="0px"
   viewBox="0 0 200 200"
   xml:space="preserve"
   inkscape:version="0.48.5 r10040"
   width="100%"
   height="100%"
   sodipodi:docname="canvas-logo.svg"><metadata
   id="metadata3028"><rdf:RDF><cc:Work
       rdf:about=""><dc:format>image/svg+xml</dc:format><dc:type
         rdf:resource="http://purl.org/dc/dcmitype/StillImage" /></cc:Work></rdf:RDF></metadata><defs
   id="defs3026">
	
	
	
	
	
	
	
	
	
	
	
	
	
	
	
	
</defs><sodipodi:namedview
   pagecolor="#ffffff"
   bordercolor="#666666"
   borderopacity="1"
   objecttolerance="10"
   gridtolerance="10"
   guidetolerance="10"
   inkscape:pageopacity="0"
   inkscape:pageshadow="2"
   inkscape:window-width="2560"
   inkscape:window-height="1027"
   id="namedview3024"
   showgrid="false"
   fit-margin-top="0"
   fit-margin-left="0"
   fit-margin-right="0"
   fit-margin-bottom="0"
   inkscape:zoom="2.95"
   inkscape:cx="195.98839"
   inkscape:cy="63.399879"
   inkscape:window-x="-8"
   inkscape:window-y="-8"
   inkscape:window-maximized="1"
   inkscape:current-layer="Layer_1" />
<style
   type="text/css"
   id="style2988">
	.st0{fill:#BBBDBF;}
</style>
<path
   style="fill:#ffffff"
   d="M 99.999998,0 C 90.37168,0 80.778759,1.2743182 71.150441,3.5398295 72.849555,17.699091 85.274333,29.026534 99.999998,29.026534 c 14.725672,0 27.150452,-11.327443 28.849552,-25.4867045 C 119.78762,1.2743182 110.1947,0 99.999998,0 z m 47.079652,10.796477 c -7.92921,11.893807 -7.36284,28.389375 2.83186,38.584034 10.19469,10.194716 26.54866,11.362841 37.87611,2.300909 C 178.15929,34.690284 164.0708,20.991136 147.07965,10.796477 z M 51.858402,11.32716 C 34.867251,20.955455 21.345127,35.220967 11.150436,52.212103 23.044241,60.707671 39.362827,60.141308 49.557517,49.380228 59.752208,39.185569 60.92035,22.654603 51.858402,11.32716 z m 48.141596,25.486988 c -5.00478,0 -9.026551,4.198737 -9.026551,9.203523 0,5.004842 4.021771,9.02659 9.026551,9.02659 5.004782,0 9.026552,-4.021748 9.026552,-9.02659 0,-5.004786 -4.02177,-9.203523 -9.026552,-9.203523 z M 61.415924,52.212386 c -2.319135,0 -4.602242,0.885397 -6.371681,2.654887 -3.538877,3.53881 -3.538877,9.381474 0,12.920341 3.538877,3.538866 9.204485,3.538866 12.743363,0 3.538878,-3.538867 3.538878,-9.381531 0,-12.920341 -1.769434,-1.76949 -4.052548,-2.654887 -6.371682,-2.654887 z m 76.637166,0.176706 c -2.31913,3.4e-4 -4.77949,0.88517 -6.54866,2.654886 -3.53838,3.539377 -3.53938,9.204995 0,12.743352 3.53938,3.538357 9.38198,3.539377 12.92034,0 3.53839,-3.539376 3.53938,-9.204995 0,-12.743352 -1.76968,-1.769207 -4.05254,-2.655226 -6.37167,-2.654886 z M 3.716807,70.796477 c -2.2654868,9.061932 -3.362832,18.831819 -3.362832,29.026534 0,9.628299 1.0973452,19.221249 3.362832,28.849549 C 17.8761,126.4071 29.203534,114.54869 29.203534,99.823011 29.203534,85.09733 17.8761,72.495568 3.716807,70.796477 z m 192.566383,0 c -14.1593,1.699091 -25.48673,14.300853 -25.48673,29.026534 0,14.725679 11.32743,27.150459 25.48673,28.849549 2.26548,-9.06194 3.36283,-18.65489 3.36283,-28.849549 0,-9.628352 -1.09735,-19.398238 -3.36283,-29.026534 z M 45.663712,90.619489 c -5.004776,0 -9.02655,4.198737 -9.02655,9.203522 0,5.004789 4.021774,9.026539 9.02655,9.026539 5.004775,0 9.026549,-4.02175 9.026549,-9.026539 0,-5.004785 -4.021774,-9.203522 -9.026549,-9.203522 z m 108.672568,0 c -5.00478,0 -9.02655,4.198737 -9.02655,9.203522 0,5.004789 4.02177,9.026539 9.02655,9.026539 5.00479,0 9.20354,-4.02175 9.20354,-9.026539 0,-5.004785 -4.19875,-9.203522 -9.20354,-9.203522 z M 61.415924,128.67256 c -2.319135,0 -4.779234,0.88539 -6.548672,2.65488 -3.538877,3.53887 -3.538877,9.38148 0,12.92034 3.538879,3.53887 9.381476,3.53887 12.920354,0 3.538878,-3.53886 3.538878,-9.38147 0,-12.92034 -1.769434,-1.76949 -4.052548,-2.65488 -6.371682,-2.65488 z m 76.814156,0.70795 c -2.31913,6.8e-4 -4.60274,0.885 -6.37168,2.65489 -3.53787,3.53988 -3.53988,9.20545 0,12.74335 3.53988,3.5379 9.20549,3.53989 12.74337,0 3.53787,-3.53989 3.53989,-9.20545 0,-12.74335 -1.76995,-1.76893 -4.05255,-2.65557 -6.37169,-2.65489 z M 31.150437,141.23892 c -6.796461,-0.42477 -13.805311,1.48676 -19.469028,6.01773 9.628319,16.99113 23.716815,30.69023 40.707967,40.88494 8.495576,-11.32744 7.362832,-27.82301 -2.831859,-38.58409 -5.097345,-5.09733 -11.61062,-7.89381 -18.40708,-8.31858 z m 137.699123,0.35398 c -6.86726,0.42477 -13.55753,3.11505 -18.93806,8.49557 -10.19469,10.19471 -11.36283,26.72568 -2.30089,38.05312 16.99116,-9.62829 30.51328,-23.89381 40.70797,-40.88494 -5.66372,-4.24779 -12.60177,-6.08852 -19.46902,-5.66375 z m -68.849562,3.53983 c -5.00478,0 -9.026551,4.02175 -9.026551,9.02653 0,5.00484 4.021771,9.02659 9.026551,9.02659 5.004782,0 9.026552,-4.02175 9.026552,-9.02659 0,-5.00478 -4.02177,-9.02653 -9.026552,-9.02653 z m 0,26.01772 c -14.725665,0 -27.150443,11.32745 -28.849557,25.48671 C 80.212384,198.90267 89.805305,200 99.999998,200 c 9.628322,0 19.221242,-1.09733 28.849552,-3.36284 -2.26547,-14.72568 -14.12389,-25.48671 -28.849552,-25.48671 z"
   id="path2992"
   inkscape:connector-curvature="0" />
</svg>