<svg id="Capa_1" data-name="Capa 1" xmlns="http://www.w3.org/2000/svg" viewBox="0 0 360 512"><defs><style>.cls-1{fill:#fff;}</style></defs><title>map</title><path class="cls-1" d="M256,0C156.75,0,76,80.75,76,180a179.62,179.62,0,0,0,26.87,94.65L245.75,504.91A15,15,0,0,0,258.5,512h.12a15,15,0,0,0,12.75-7.29L410.61,272.22A179.78,179.78,0,0,0,436,180C436,80.75,355.25,0,256,0ZM384.87,256.82,258.27,468.19,128.37,258.85A149.79,149.79,0,0,1,105.8,180c0-82.71,67.49-150.2,150.2-150.2S406.1,97.29,406.1,180A149.9,149.9,0,0,1,384.87,256.82Z" transform="translate(-76 0)"/><path class="cls-1" d="M256,90a90,90,0,1,0,90,90A90.1,90.1,0,0,0,256,90Zm0,150.2A60.2,60.2,0,1,1,316.1,180,60.24,60.24,0,0,1,256,240.2Z" transform="translate(-76 0)"/></svg>