<svg id="Layer_1" data-name="Layer 1" xmlns="http://www.w3.org/2000/svg" viewBox="0 0 297 226.9"><defs><style>.cls-1{fill:#fff;}</style></defs><title>opleidingen</title><path class="cls-1" d="M45.43,35.05h0A10.6,10.6,0,0,0,34.83,45.68V205a10.67,10.67,0,0,0,10.64,10.63c24.74.06,66.19,5.21,94.78,35.13V84a10.22,10.22,0,0,0-1.46-5.38C115.32,40.85,70.23,35.11,45.43,35.05Z" transform="translate(0 -35.05)"/><path class="cls-1" d="M262.17,205V45.68a10.6,10.6,0,0,0-10.58-10.63h0c-24.8.06-69.89,5.8-93.36,43.59A10.22,10.22,0,0,0,156.75,84V250.8c28.59-29.92,70-35.08,94.78-35.13A10.68,10.68,0,0,0,262.17,205Z" transform="translate(0 -35.05)"/><path class="cls-1" d="M286.37,71.8h-7.7V205a27.2,27.2,0,0,1-27.1,27.13c-21,.05-55.59,4.15-80.09,27.34,42.38-10.38,87-3.63,112.51,2.17a10.63,10.63,0,0,0,13-10.35V82.43A10.64,10.64,0,0,0,286.37,71.8Z" transform="translate(0 -35.05)"/><path class="cls-1" d="M18.33,205V71.8h-7.7A10.64,10.64,0,0,0,0,82.43V251.32a10.63,10.63,0,0,0,13,10.36c25.46-5.8,70.14-12.55,112.52-2.17-24.51-23.19-59.1-27.29-80.09-27.34A27.2,27.2,0,0,1,18.33,205Z" transform="translate(0 -35.05)"/></svg>