<svg id="Layer_1" data-name="Layer 1" xmlns="http://www.w3.org/2000/svg" xmlns:xlink="http://www.w3.org/1999/xlink" viewBox="0 0 86.51 114.91"><defs><style>.cls-1{fill:none;}.cls-2{clip-path:url(#clip-path);}.cls-3{fill:#fff;}</style><clipPath id="clip-path" transform="translate(-12.03 -9.57)"><rect class="cls-1" width="106" height="139"/></clipPath></defs><title>wiezoektu</title><g class="cls-2"><g id="iPhone_X_XS_1" data-name="iPhone X XS 1"><g id="man-user"><path id="Tracé_38" data-name="Tracé 38" class="cls-3" d="M52.55,70C64.4,70,74,58.36,74,44s-3.15-26-21.45-26S31.1,29.58,31.1,44,40.7,70,52.55,70Z" transform="translate(-12.03 -9.57)"/><path id="Tracé_39" data-name="Tracé 39" class="cls-3" d="M12,109.82C12,108.94,12,109.57,12,109.82Z" transform="translate(-12.03 -9.57)"/><path id="Tracé_40" data-name="Tracé 40" class="cls-3" d="M93.07,110.5C93.08,110.26,93.07,108.84,93.07,110.5Z" transform="translate(-12.03 -9.57)"/><path id="Tracé_41" data-name="Tracé 41" class="cls-3" d="M93,108.77C92.62,83.7,89.35,76.55,64.3,72c0,0-3.53,4.49-11.75,4.49S40.8,72,40.8,72C16,76.5,12.55,83.54,12.09,108c0,2-.05,2.1-.06,1.87v2.63s6,12,40.52,12,40.52-12,40.52-12v-2A16.58,16.58,0,0,1,93,108.77Z" transform="translate(-12.03 -9.57)"/></g><g id="question-mark"><path id="Tracé_37" data-name="Tracé 37" class="cls-3" d="M86.41,9.57c6.11,0,12.13,2.81,12.13,9.54,0,6.21-7.11,8.6-8.64,10.84-1.14,1.67-.76,4-3.91,4a3,3,0,0,1-3.06-3v-.18c0-5.68,8.36-7,8.36-11.65,0-2.58-1.72-4.1-4.59-4.1-6.11,0-3.72,6.3-8.35,6.3a2.86,2.86,0,0,1-3.1-2.6c0-.1,0-.21,0-.31C75.24,13.71,80.59,9.57,86.41,9.57Zm-.23,27.49A3.92,3.92,0,1,1,82.26,41,3.91,3.91,0,0,1,86.18,37.06Z" transform="translate(-12.03 -9.57)"/></g></g></g></svg>