<svg xmlns="http://www.w3.org/2000/svg" xmlns:xlink="http://www.w3.org/1999/xlink" width="106" height="139" viewBox="0 0 106 139">
  <defs>
    <clipPath id="clip-iPhone_X_XS_1">
      <rect width="106" height="139"/>
    </clipPath>
  </defs>
  <g id="iPhone_X_XS_1" data-name="iPhone X/XS – 1" clip-path="url(#clip-iPhone_X_XS_1)">
    <rect width="106" height="139" fill="#fff"/>
    <g id="man-user" transform="translate(12.026 21.56)">
      <path id="Tracé_38" data-name="Tracé 38" d="M125.989,52.115c11.848,0,21.453-11.666,21.453-26.058S144.288,0,125.989,0s-21.454,11.666-21.454,26.058S114.14,52.115,125.989,52.115Z" transform="translate(-85.464)"/>
      <path id="Tracé_39" data-name="Tracé 39" d="M41.9,300.823c0-.877-.007-.247,0,0Z" transform="translate(-41.895 -208.921)"/>
      <path id="Tracé_40" data-name="Tracé 40" d="M308.085,302.283c.012-.24,0-1.667,0,0Z" transform="translate(-227.041 -209.695)"/>
      <path id="Tracé_41" data-name="Tracé 41" d="M122.9,214.475c-.4-25.07-3.671-32.213-28.726-36.735,0,0-3.527,4.494-11.747,4.494s-11.748-4.494-11.748-4.494C45.9,182.213,42.426,189.25,41.97,213.661c-.037,1.993-.055,2.1-.061,1.867,0,.434,0,1.236,0,2.634,0,0,5.965,12.025,40.518,12.025s40.518-12.025,40.518-12.025c0-.9,0-1.523,0-1.948A16.135,16.135,0,0,1,122.9,214.475Z" transform="translate(-41.904 -123.625)"/>
    </g>
    <g id="question-mark" transform="translate(75.244 13.21)">
      <path id="Tracé_37" data-name="Tracé 37" d="M11.17,0C17.28,0,23.3,2.814,23.3,9.545c0,6.207-7.113,8.595-8.641,10.837-1.147,1.668-.764,4.013-3.915,4.013a3.038,3.038,0,0,1-3.055-3.2c0-5.685,8.352-6.971,8.352-11.652,0-2.576-1.715-4.1-4.581-4.1-6.11,0-3.724,6.3-8.352,6.3A2.857,2.857,0,0,1,0,8.831C0,4.149,5.344,0,11.17,0Zm-.238,27.495a3.916,3.916,0,1,1-3.916,3.916A3.933,3.933,0,0,1,10.932,27.495Z" transform="translate(0 0)"/>
    </g>
  </g>
</svg>
